# xmcd
#
# Track frame offsets:
#	150
#	17616
#	42330
#	55840
#	70220
#	86255
#	103630
#	112970
#	131195
#	153538
#	170145
#	182580
#	210307
#
# Disc length: 3069 seconds
#
# Revision: 0
# Processed by: cddbd v1.5.2PL0 Copyright (c) Steve Scherf et al.
# Submitted via: EZCDAudioConverter 2.1.7.1
#
DISCID=aa0bfb0d
DTITLE=V/A - Merge Records: Spring-Summer Sampler 2015
DYEAR=1900
DGENRE=
TTITLE0=Will Butler - Anna
TTITLE1=Twerps - I Don't Mind
TTITLE2=Mountain Goats - The Legend Of Chavo Guerrero
TTITLE3=Waxahatchee - Air
TTITLE4=Mikal Cronin - Made My Mind Up
TTITLE5=Mac McCaughan - Lost Again
TTITLE6=Ex Hex - Waterfall
TTITLE7=Superchunk - Hello Hawk
TTITLE8=Portastatic - Hey Salty
TTITLE9=Destroyer - It's Gonna Take An Airplane
TTITLE10=M. Ward - Big Boat
TTITLE11=Hiss Golden Messenger - Brother, Do You Know The Road?
TTITLE12=William Tyler - Waltz Of The Circassian Beauties
EXTD=
EXTT0=
EXTT1=
EXTT2=
EXTT3=
EXTT4=
EXTT5=
EXTT6=
EXTT7=
EXTT8=
EXTT9=
EXTT10=
EXTT11=
EXTT12=
PLAYORDER=
